<svg width="70" height="70" viewBox="0 0 70 70" fill="none" xmlns="http://www.w3.org/2000/svg">
<g clip-path="url(#clip0)">
<rect width="70" height="70" fill="white"/>
<mask id="mask0" mask-type="alpha" maskUnits="userSpaceOnUse" x="0" y="-1" width="70" height="71">
<path d="M69.2707 34.9999H53.2293V16.7706L36.2469 0.218637C36.1802 0.148592 36.0999 0.0930206 36.0108 0.0553858C35.9218 0.0177509 35.8259 -0.00114097 35.7293 -0.000112763C35.536 0.000464273 35.3509 0.0774819 35.2142 0.214119C35.0776 0.350757 35.0006 0.535911 35 0.729145V16.7706H16.7707L0.21875 33.753C0.0801172 33.8843 0 34.0666 0 34.2706C0 34.6718 0.328125 34.9999 0.729258 34.9999H16.7707V53.2291L33.7531 69.7811C33.8844 69.9198 34.0668 69.9999 34.2707 69.9999C34.6719 69.9999 35 69.6718 35 69.2706V53.2291H53.2293L69.7812 36.2468C69.9199 36.1155 70 35.9331 70 35.7291C70 35.328 69.6719 34.9999 69.2707 34.9999Z" fill="white"/>
</mask>
<g mask="url(#mask0)">
<path d="M69.2707 34.9999H53.2293V16.7706L36.2469 0.218637C36.1802 0.148592 36.0999 0.0930206 36.0108 0.0553858C35.9218 0.0177509 35.8259 -0.00114097 35.7293 -0.000112763C35.536 0.000464273 35.3509 0.0774819 35.2142 0.214119C35.0776 0.350757 35.0006 0.535911 35 0.729145V16.7706H16.7707L0.21875 33.753C0.0801172 33.8843 0 34.0666 0 34.2706C0 34.6718 0.328125 34.9999 0.729258 34.9999H16.7707V53.2291L33.7531 69.7811C33.8844 69.9198 34.0668 69.9999 34.2707 69.9999C34.6719 69.9999 35 69.6718 35 69.2706V53.2291H53.2293L69.7812 36.2468C69.9199 36.1155 70 35.9331 70 35.7291C70 35.328 69.6719 34.9999 69.2707 34.9999Z" fill="black"/>
<path d="M0.21875 33.7519C0.0801172 33.8832 0 34.0656 0 34.2696C0 34.6707 0.328125 34.9988 0.729258 34.9988H35V16.7696H16.7707L0.21875 33.7519Z" fill="#FCBB29"/>
<path d="M35 35V16.7707H16.7707L35 35Z" fill="#FC9723"/>
<path d="M16.7707 16.7696L0.21875 33.752C0.0801172 33.8832 0 34.0656 0 34.2696C0 34.3352 0.021875 34.3937 0.0363672 34.452C0.0730078 34.3281 0.123867 34.2039 0.211367 34.1164L16.7707 17.1343H35V16.7696H16.7707Z" fill="white" fill-opacity="0.2"/>
<path d="M35 35V34.6355L17.1355 16.7707H16.7707L35 35Z" fill="#3E2723" fill-opacity="0.1"/>
<path opacity="0.8" d="M32.8035 32.806L30.1743 33.9287L15.3477 18.2539L16.7929 16.7404L32.8035 32.806Z" fill="url(#paint0_linear)"/>
<path d="M33.7531 69.7812C33.8844 69.9199 34.0668 70 34.2707 70C34.6719 70 35 69.6719 35 69.2707V35H16.7707V53.2293L33.7531 69.7812Z" fill="#8CC251"/>
<path d="M16.7707 35V53.2293L35 35H16.7707Z" fill="#1D9A59"/>
<path d="M34.2707 69.6355C34.1741 69.6365 34.0782 69.6176 33.9892 69.58C33.9001 69.5424 33.8198 69.4868 33.7531 69.4168L16.9531 53.0469L16.7707 53.2293L33.7531 69.7812C33.8844 69.9199 34.0668 70 34.2707 70C34.6719 70 35 69.6719 35 69.2707V68.9062C35 69.3074 34.6719 69.6355 34.2707 69.6355Z" fill="#3E2723" fill-opacity="0.1"/>
<path opacity="0.7" d="M32.9222 37.4539L33.5317 38.873L18.4029 54.821L16.9638 53.4171L32.9222 37.4539Z" fill="url(#paint1_linear)"/>
<path opacity="0.2" d="M35 35.3645H34.6355L16.7707 53.2293V53.5938L35 35.3645Z" fill="black"/>
<path d="M69.7812 36.2469C69.9199 36.1156 70 35.9332 70 35.7293C70 35.3281 69.6719 35 69.2707 35H35V53.2293H53.2293L69.7812 36.2469Z" fill="#4B87F1"/>
<path d="M35 35V53.2293H53.2293L35 35Z" fill="#3367D6"/>
<path d="M53.2293 53.2293L69.7812 36.2469C69.9199 36.1156 70 35.9332 70 35.7293C70 35.6636 69.9781 35.6051 69.9636 35.5469C69.927 35.6707 69.8761 35.7949 69.7886 35.8824L53.2293 52.8645H35V53.2293H53.2293Z" fill="#263238" fill-opacity="0.2"/>
<path d="M35 35V35.3645L52.8645 53.2293H53.2293L35 35Z" fill="#263238" fill-opacity="0.1"/>
<path d="M69.9636 35.9114C69.9781 35.8531 70 35.7949 70 35.7293C70 35.3281 69.6719 35 69.2707 35H35V35.3645H69.2707C69.6062 35.3645 69.8832 35.598 69.9636 35.9114Z" fill="white" fill-opacity="0.2"/>
<path d="M36.2469 0.21879C36.1802 0.148745 36.0999 0.0931732 36.0108 0.0555384C35.9218 0.0179035 35.8259 -0.00098838 35.7293 3.98244e-05C35.536 0.000616861 35.3509 0.0776344 35.2142 0.214272C35.0776 0.350909 35.0006 0.536064 35 0.729298V35H53.2293V16.7708L36.2469 0.21879Z" fill="#D8443C"/>
<path d="M36.2469 0.21879C36.1802 0.148745 36.0999 0.0931732 36.0108 0.0555384C35.9218 0.0179035 35.8259 -0.00098838 35.7293 3.98244e-05C35.536 0.000616861 35.3509 0.0776344 35.2142 0.214272C35.0776 0.350909 35.0006 0.536064 35 0.729298V1.09379C35 0.692657 35.3281 0.364532 35.7293 0.364532C35.9332 0.364532 36.1156 0.444923 36.2469 0.583282L52.8574 16.7782L53.2293 16.7708L36.2469 0.21879Z" fill="white" fill-opacity="0.2"/>
<path d="M53.2293 35V16.7708L47.9746 22.0254L35 35H53.2293Z" fill="#AB1657"/>
<path opacity="0.2" d="M35 34.6355H35.3645L53.2293 16.7708L52.8574 16.7781L35 34.6355Z" fill="white"/>
<path d="M35 34.6355H53.2293V35H35V34.6355Z" fill="#3E2723" fill-opacity="0.1"/>
<path d="M32.8125 32.8125L35 27.7082L37.1875 32.8125L42.2918 35L37.1875 37.1875L35 42.2918L32.8125 37.1875L27.7082 35L32.8125 32.8125Z" fill="#F1F1F1"/>
</g>
</g>
<defs>
<linearGradient id="paint0_linear" x1="25.2743" y1="24.9116" x2="23.5627" y2="26.6975" gradientUnits="userSpaceOnUse">
<stop stop-color="#E88C22"/>
<stop offset="1" stop-color="#FCBB29" stop-opacity="0"/>
</linearGradient>
<linearGradient id="paint1_linear" x1="25.2477" y1="44.4957" x2="26.6843" y2="45.8243" gradientUnits="userSpaceOnUse">
<stop stop-color="#5E8235"/>
<stop offset="1" stop-color="#8CC251" stop-opacity="0"/>
</linearGradient>
<clipPath id="clip0">
<rect width="70" height="70" fill="white"/>
</clipPath>
</defs>
</svg>
